<svg width="24" height="31" viewBox="0 0 24 31" fill="none" xmlns="http://www.w3.org/2000/svg">
<g clip-path="url(#clip0_964_17688)">
<path d="M11.9999 18.25C15.3089 18.25 17.9999 15.559 17.9999 12.2501C17.9999 8.94109 15.3089 6.25012 11.9999 6.25012C8.69097 6.25012 6 8.94109 6 12.2501C6 15.559 8.69097 18.25 11.9999 18.25ZM11.9999 9.25009C13.6544 9.25009 14.9999 10.5956 14.9999 12.2501C14.9999 13.9045 13.6544 15.25 11.9999 15.25C10.3455 15.25 8.99997 13.9045 8.99997 12.2501C8.99997 10.5956 10.3455 9.25009 11.9999 9.25009Z" fill="#8EC2F2"/>
<path d="M11.13 29.9708C11.3839 30.1521 11.688 30.2496 12 30.2496C12.312 30.2496 12.6161 30.1521 12.87 29.9708C13.326 29.6483 24.0434 21.9099 23.9999 12.25C23.9999 5.63356 18.6164 0.250122 12 0.250122C5.38357 0.250122 0.000132055 5.63356 0.000132055 12.2425C-0.0433675 21.9099 10.674 29.6483 11.13 29.9708ZM12 3.25009C16.9634 3.25009 20.9999 7.28655 20.9999 12.2575C21.0314 18.9144 14.418 24.8919 12 26.8523C9.58353 24.8904 2.9686 18.9114 3.0001 12.25C3.0001 7.28655 7.03655 3.25009 12 3.25009Z" fill="#8EC2F2"/>
</g>
<defs>
<clipPath id="clip0_964_17688">
<rect width="24" height="29.9997" fill="white" transform="translate(0 0.250122)"/>
</clipPath>
</defs>
</svg>
