<svg width="24" height="27" viewBox="0 0 24 27" fill="none" xmlns="http://www.w3.org/2000/svg">
<g clip-path="url(#clip0_964_17693)">
<path d="M23.71 2.21658C23.575 2.07688 23.4045 1.98016 23.2185 1.93778C23.0325 1.89541 22.8388 1.90915 22.66 1.97738L0.660001 10.2974C0.470269 10.3722 0.306921 10.5053 0.191652 10.679C0.0763829 10.8527 0.0146484 11.0587 0.0146484 11.2698C0.0146484 11.4808 0.0763829 11.6869 0.191652 11.8605C0.306921 12.0342 0.470269 12.1673 0.660001 12.2422L10.26 16.2358L14.1 26.2198C14.1721 26.4084 14.2958 26.571 14.4557 26.6874C14.6157 26.8039 14.8049 26.8691 15 26.875C15.2021 26.8707 15.3982 26.8028 15.5624 26.6802C15.7266 26.5577 15.8513 26.3863 15.92 26.1886L23.92 3.30858C23.9881 3.12458 24.0046 2.92423 23.9674 2.73088C23.9302 2.53754 23.8409 2.35917 23.71 2.21658ZM15 22.923L12.21 15.643L17 10.6614L15.59 9.19498L10.76 14.2182L3.8 11.275L21.33 4.69178L15 22.923Z" fill="#8EC2F2"/>
</g>
<defs>
<clipPath id="clip0_964_17693">
<rect width="24" height="26" fill="white" transform="translate(0 0.875)"/>
</clipPath>
</defs>
</svg>
